<?xml version="1.0" standalone="no"?>
<!DOCTYPE svg PUBLIC "-//W3C//DTD SVG 20010904//EN"
 "http://www.w3.org/TR/2001/REC-SVG-20010904/DTD/svg10.dtd">
<svg version="1.0" xmlns="http://www.w3.org/2000/svg"
 width="360" height="285" viewBox="0 0 360.000000 285.000000"
 preserveAspectRatio="xMidYMid meet" >

<g transform="translate(0.000000,285.000000) scale(0.100000,-0.100000)"
fill="rgb(145 55 39  /89%)" stroke="none">
<path d="M1957 2690 c-3 -8 -8 -31 -9 -50 l-4 -35 -13 28 c-8 15 -20 27 -28
27 -9 0 -4 -18 17 -60 l30 -60 -30 0 c-16 0 -30 -4 -30 -10 0 -5 11 -10 25
-10 29 0 32 -17 11 -58 -21 -43 -28 -72 -17 -72 6 0 17 12 25 28 15 27 15 27
16 -25 0 -28 5 -55 10 -58 6 -4 10 13 10 44 0 28 5 51 10 51 6 0 10 -7 10 -15
0 -9 7 -18 15 -21 8 -4 15 -17 15 -29 0 -13 4 -26 9 -29 8 -5 12 22 24 174 2
22 7 25 42 25 51 0 57 -28 8 -33 -42 -4 -43 -20 -1 -24 46 -4 49 -28 4 -28
l-36 0 0 -50 0 -50 85 0 85 0 0 50 0 50 -40 0 c-29 0 -40 4 -40 15 0 10 11 15
35 15 31 0 35 3 35 25 0 14 7 28 15 31 8 4 15 10 15 15 0 5 -7 9 -15 9 -9 0
-15 9 -15 25 0 22 -4 25 -35 25 -24 0 -35 5 -35 15 0 11 12 15 50 15 28 0 50
5 50 10 0 6 -22 10 -49 10 -42 0 -50 3 -55 23 l-7 22 -9 -22 c-8 -19 -18 -23
-57 -24 -26 -1 -53 -1 -59 0 -6 1 -20 -11 -30 -26 l-19 -28 -6 50 c-3 29 -8
44 -12 35z m79 -72 c-3 -13 -6 -35 -6 -50 0 -23 -4 -28 -25 -28 -30 0 -30 -1
-3 55 23 47 45 61 34 23z m102 10 c-3 -7 -19 -14 -36 -16 -43 -4 -41 -22 3
-22 24 0 35 -5 35 -15 0 -11 -11 -15 -43 -15 l-43 0 4 40 c4 39 5 40 44 40 27
0 38 -4 36 -12z m72 -53 c0 -9 -9 -15 -25 -15 -16 0 -25 6 -25 15 0 9 9 15 25
15 16 0 25 -6 25 -15z m0 -55 c0 -15 -7 -20 -25 -20 -18 0 -25 5 -25 20 0 15
7 20 25 20 18 0 25 -5 25 -20z m-180 -37 c0 -62 -15 -70 -33 -21 -22 56 -22
58 8 58 22 0 25 -4 25 -37z m188 -85 l3 -28 -65 0 c-62 0 -66 1 -66 23 0 34 8
38 70 35 52 -3 55 -5 58 -30z"/>
<path d="M2590 2525 l0 -165 -40 0 c-22 0 -40 -4 -40 -10 0 -5 23 -10 50 -10
l50 0 0 175 c0 110 -4 175 -10 175 -6 0 -10 -62 -10 -165z"/>
<path d="M840 2670 c0 -5 5 -12 10 -15 6 -4 10 -68 10 -161 0 -96 4 -154 10
-154 6 0 10 7 10 15 0 10 10 15 34 15 19 0 37 4 40 8 3 5 -3 41 -14 81 -18 71
-18 73 2 132 l20 59 94 0 94 0 0 -145 0 -145 -50 0 c-27 0 -50 -4 -50 -10 0
-6 27 -10 60 -10 l60 0 0 154 c0 128 3 155 15 160 8 3 15 10 15 16 0 6 -63 10
-180 9 -99 0 -180 -4 -180 -9z m90 -28 c0 -5 -7 -32 -16 -62 -14 -48 -14 -59
0 -116 20 -79 21 -74 -9 -74 l-25 0 0 130 0 130 25 0 c14 0 25 -4 25 -8z"/>
<path d="M2697 2611 c-31 -30 -57 -60 -57 -68 0 -19 118 -193 131 -193 16 0 6
21 -51 105 -27 41 -50 78 -50 82 0 4 21 28 46 54 68 69 51 86 -19 20z"/>
<path d="M987 2604 c-4 -4 -7 -45 -7 -91 l0 -84 68 3 67 3 0 85 0 85 -60 3
c-34 2 -64 0 -68 -4z m103 -89 l0 -65 -45 0 -45 0 0 65 0 65 45 0 45 0 0 -65z"/>
<path d="M2425 2600 c-4 -6 15 -10 49 -10 31 0 56 -2 56 -5 0 -3 -25 -55 -55
-115 -30 -60 -55 -112 -55 -115 0 -3 6 -5 13 -5 11 0 127 231 127 253 0 11
-128 8 -135 -3z"/>
<path d="M1370 2510 c0 -6 65 -10 175 -10 110 0 175 4 175 10 0 6 -65 10 -175
10 -110 0 -175 -4 -175 -10z"/>
<path d="M1430 2175 c0 -37 4 -65 10 -65 6 0 10 28 10 65 0 37 -4 65 -10 65
-6 0 -10 -28 -10 -65z"/>
<path d="M863 2223 c15 -2 39 -2 55 0 15 2 2 4 -28 4 -30 0 -43 -2 -27 -4z"/>
<path d="M1050 2205 c0 -22 -4 -25 -40 -25 -22 0 -40 -3 -40 -8 0 -4 18 -6 39
-4 38 4 40 3 44 -30 2 -19 4 -7 5 30 1 34 0 62 -3 62 -3 0 -5 -11 -5 -25z"/>
<path d="M1100 2170 l0 -60 43 2 42 1 -37 4 c-32 4 -38 8 -38 28 0 20 6 24 38
28 l37 4 -37 1 c-30 2 -38 6 -38 21 0 15 8 21 38 24 l37 4 -42 1 -43 2 0 -60z"/>
<path d="M1322 2168 c0 -35 3 -49 5 -31 4 27 9 32 36 36 l32 4 -32 1 c-25 2
-33 7 -33 21 0 15 8 21 38 24 l37 4 -42 1 -43 2 2 -62z"/>
<path d="M1492 2168 c0 -35 3 -48 5 -30 5 40 25 41 55 2 12 -16 26 -30 32 -30
5 0 -1 11 -14 25 -22 24 -23 26 -6 38 10 7 17 22 15 33 -3 15 -14 20 -47 22
l-42 3 2 -63z m76 30 c3 -15 -4 -18 -32 -18 -30 0 -36 4 -36 21 0 17 5 20 32
17 22 -2 34 -9 36 -20z"/>
<path d="M1627 2223 c-18 -18 -4 -41 33 -56 29 -11 38 -20 34 -31 -8 -21 -43
-20 -66 1 -10 9 -18 12 -18 7 0 -34 72 -47 89 -16 13 24 2 39 -32 47 -33 9
-46 33 -26 46 8 5 9 9 3 9 -6 0 -14 -3 -17 -7z"/>
<path d="M1676 2216 c21 -15 30 -14 19 3 -3 6 -14 11 -23 11 -13 0 -13 -2 4
-14z"/>
<path d="M1747 2223 c19 -4 23 -12 26 -61 l3 -57 2 57 c2 50 5 57 25 61 12 2
0 4 -28 4 -27 0 -40 -2 -28 -4z"/>
<path d="M1960 2170 c0 -58 1 -60 26 -60 45 0 64 17 64 58 0 47 -14 62 -57 62
l-33 0 0 -60z m68 38 c7 -7 12 -24 12 -38 0 -32 -17 -50 -47 -50 -21 0 -23 4
-23 50 0 46 2 50 23 50 13 0 28 -5 35 -12z"/>
<path d="M2090 2170 l0 -60 43 2 42 1 -37 4 c-32 4 -38 8 -38 28 0 20 6 24 38
28 l37 4 -37 1 c-30 2 -38 6 -38 21 0 15 8 21 38 24 l37 4 -42 1 -43 2 0 -60z"/>
<path d="M2217 2224 c-17 -17 -6 -44 21 -50 36 -9 52 -22 45 -40 -7 -19 -42
-18 -66 4 -19 16 -20 16 -8 -5 21 -41 104 -21 88 21 -4 9 -21 19 -39 24 -40
10 -52 42 -16 42 13 0 30 -6 37 -12 11 -11 13 -10 9 2 -5 16 -59 26 -71 14z"/>
<path d="M2334 2215 c-8 -19 13 -45 36 -45 22 0 44 -25 35 -40 -10 -16 -53
-12 -64 8 -10 16 -10 16 -11 0 0 -11 10 -20 27 -24 58 -15 83 43 26 61 -44 15
-51 24 -29 41 18 12 18 14 3 14 -10 0 -20 -7 -23 -15z"/>
<path d="M2394 2215 c8 -8 18 -15 22 -15 3 0 1 7 -6 15 -7 8 -17 15 -22 15 -5
0 -3 -7 6 -15z"/>
<path d="M2450 2170 l0 -60 48 2 47 1 -43 4 c-38 4 -43 7 -40 26 2 16 12 24
38 28 l35 6 -37 2 c-31 1 -38 5 -38 20 0 16 8 21 43 24 l42 4 -47 1 -48 2 0
-60z"/>
<path d="M2615 2221 c53 -8 55 -35 3 -39 -21 -2 -38 -7 -38 -12 0 -4 8 -6 19
-3 13 3 25 -5 41 -27 12 -17 25 -29 28 -26 3 3 -3 15 -13 26 -18 19 -18 21 -1
33 10 7 17 22 15 33 -3 15 -13 19 -49 20 l-45 2 40 -7z"/>
<path d="M2717 2223 c19 -4 23 -12 26 -61 l3 -57 2 57 c2 50 5 57 25 61 12 2
0 4 -28 4 -27 0 -40 -2 -28 -4z"/>
<path d="M47 2033 c-12 -11 -8 -127 8 -216 32 -181 96 -341 199 -496 345 -518
1038 -804 1767 -731 712 72 1295 491 1473 1058 34 107 56 236 56 323 0 77 -6
82 -55 48 -416 -283 -1710 -397 -2674 -233 -334 56 -584 137 -726 233 -33 23
-38 24 -48 14z"/>
<path d="M2405 578 c-253 -83 -635 -108 -939 -62 -89 13 -267 53 -310 70 -12
5 -16 0 -16 -20 0 -101 309 -186 673 -186 369 1 667 86 667 192 0 32 3 32 -75
6z"/>
</g>
</svg>
