<?xml version="1.0" encoding="UTF-8" standalone="no"?>
<svg
   xmlns:dc="http://purl.org/dc/elements/1.1/"
   xmlns:cc="http://creativecommons.org/ns#"
   xmlns:rdf="http://www.w3.org/1999/02/22-rdf-syntax-ns#"
   xmlns:svg="http://www.w3.org/2000/svg"
   xmlns="http://www.w3.org/2000/svg"
   viewBox="0 0 11338.587 4535.4268"
   height="360"
   width="285"
   xml:space="preserve"
   id="svg2"
   version="1.1">
   
   
   <metadata
     id="metadata8"><rdf:RDF><cc:Work
         rdf:about=""><dc:format>image/svg+xml</dc:format><dc:type
           rdf:resource="http://purl.org/dc/dcmitype/StillImage" /></cc:Work></rdf:RDF></metadata><defs
     id="defs6"><clipPath
       id="clipPath22"
       clipPathUnits="userSpaceOnUse"><path
         id="path20"
         d="M 0,3401.575 H 8503.937 V 0 H 0 Z" /></clipPath></defs><g
     transform="matrix(1.3333333,0,0,-1.3333333,0,4535.4267)"
     id="g10"><path
       id="path12"
       style="fill:none;fill-opacity:1;fill-rule:nonzero;stroke:none"
       d="M 0,0 H 8503.937 V 3401.574 H 0 Z" /><path
       id="path14"
       style="fill:#231916;fill-opacity:1;fill-rule:nonzero;stroke:none"
       d="M 0,0 H 8503.936 V 3401.574 H 0 Z M 0.499,3401.074 H 8503.437 V 0.499 H 0.499 Z" /><g
       id="g16"><g
         clip-path="url(#clipPath22)"
         id="g18"><g
           transform="translate(4273.1484,650.4761)"
           id="g24"><path
             id="path26"
             style="fill:#e1261c;fill-opacity:1;fill-rule:nonzero;stroke:none"
             d="m 0,0 h -42.123 c -178.324,0 -351.895,27.026 -516.278,80.339 -3.917,-7.094 -5.887,-14.208 -5.887,-21.3 0,-74.266 227.813,-156.997 554.705,-156.997 327.04,0 554.953,82.731 554.953,156.997 0,9.055 -3.325,18.274 -9.949,27.493 C 365.543,29.112 185.52,0 0,0" /></g><g
           transform="translate(5662.4707,1914.4263)"
           id="g28"><path
             id="path30"
             style="fill:#e1261c;fill-opacity:1;fill-rule:nonzero;stroke:none"
             d="m 0,0 c 12.953,10.792 32.626,1.48 32.626,-15.38 v -0.351 c 0,-475.153 -340.682,-901.906 -867.941,-1087.232 -0.023,-0.011 -0.044,-0.021 -0.067,-0.021 -109.534,-38.537 -223.425,-65.205 -340.375,-79.785 -70.175,-8.753 -141.457,-13.153 -213.562,-13.153 h -42.125 c -185.567,0 -365.957,29.257 -536.233,86.97 -538.196,181.827 -885.954,610.927 -885.954,1093.221 0,16.835 19.634,26.168 32.586,15.413 166.973,-138.639 700.122,-265.463 1410.356,-265.463 C -699.959,-265.781 -166.541,-138.769 0,0" /></g><path
           id="path32"
           style="fill:#e1261c;fill-opacity:1;fill-rule:nonzero;stroke:none"
           d="m 3675.508,2361.114 h -73.225 v -104.177 h 73.225 z m -83.202,-125.811 c -0.224,0 -0.398,-0.05 -0.51,-0.162 -0.112,-0.112 -0.274,-0.162 -0.498,-0.162 -3.11,0 -5.71,1.045 -7.812,3.16 -2.115,2.103 -3.173,4.703 -3.173,7.813 v 125.475 c 0,2.886 1.555,5.66 4.665,8.323 2.439,2.438 5.101,3.657 7.987,3.657 h 92.857 l 0.671,-0.336 c 3.098,0 5.71,-1.045 7.813,-3.159 2.115,-2.103 3.16,-4.715 3.16,-7.813 v -125.475 c 0,-2.886 -1.107,-5.436 -3.322,-7.651 -2.227,-2.662 -4.988,-3.994 -8.322,-3.994 h -92.857 c -0.224,0 -0.336,0.05 -0.336,0.162 0,0.112 -0.112,0.162 -0.323,0.162 m -88.863,-24.956 h 38.939 l -26.622,105.496 c -0.672,2.662 -0.225,5.548 1.331,8.658 l 28.949,94.523 h -42.597 z m 252.269,230.635 c 3.111,0 5.711,-1.045 7.825,-3.16 2.103,-2.102 3.16,-4.715 3.16,-7.812 0,-3.111 -1.057,-5.723 -3.16,-7.825 -2.114,-2.116 -4.714,-3.161 -7.825,-3.161 h -13.983 v -249.283 c 0,-3.097 -1.045,-5.71 -3.16,-7.825 -2.102,-2.102 -4.715,-3.16 -7.812,-3.16 h -84.546 c -3.098,0 -5.711,1.058 -7.813,3.16 -2.115,2.115 -3.16,4.728 -3.16,7.825 0,3.111 1.045,5.711 3.16,7.825 2.102,2.115 4.715,3.16 7.813,3.16 h 73.56 v 238.298 h -142.444 c -2.45,0 -4.889,0.996 -7.327,2.999 l -31.947,-104.177 28.949,-115.15 c 0.672,-2.886 0.286,-5.611 -1.157,-8.161 -1.443,-2.55 -3.72,-4.267 -6.83,-5.15 -0.448,0 -0.883,-0.062 -1.331,-0.174 -0.448,-0.112 -0.883,-0.162 -1.331,-0.162 l -0.323,0.336 c -0.449,-0.224 -0.834,-0.448 -1.17,-0.672 -0.336,-0.224 -0.722,-0.336 -1.169,-0.336 h -50.248 v -20.303 c 0,-3.097 -1.057,-5.71 -3.16,-7.812 -2.114,-2.115 -4.727,-3.16 -7.825,-3.16 -3.11,0 -5.772,1.045 -7.987,3.16 -2.226,2.102 -3.334,4.715 -3.334,7.812 v 251.274 h -3.993 c -3.11,0 -5.71,1.057 -7.813,3.173 -2.114,2.102 -3.172,4.702 -3.172,7.812 0,3.11 1.058,5.71 3.172,7.825 2.103,2.103 4.703,3.16 7.813,3.16 h 82.879 c 3.321,0 6.095,-1.667 8.31,-4.989 h 0.336 c 2.215,3.098 5.101,4.653 8.658,4.653 z" /><g
           transform="translate(3912.1267,2291.2231)"
           id="g34"><path
             id="path36"
             style="fill:#e1261c;fill-opacity:1;fill-rule:nonzero;stroke:none"
             d="m 0,0 c -3.098,0 -5.71,1.045 -7.812,3.16 -2.115,2.102 -3.16,4.715 -3.16,7.825 0,3.098 1.045,5.71 3.16,7.812 2.102,2.116 4.714,3.161 7.812,3.161 h 272.92 c 3.098,0 5.71,-1.045 7.813,-3.161 2.115,-2.102 3.16,-4.714 3.16,-7.812 0,-3.11 -1.045,-5.723 -3.16,-7.825 C 278.63,1.045 276.018,0 272.92,0 Z" /></g><path
           id="path38"
           style="fill:#e1261c;fill-opacity:1;fill-rule:nonzero;stroke:none"
           d="m 4592.412,2322.175 h -40.594 v -24.296 h 40.594 z m -40.594,21.957 h 40.594 v 22.642 h -40.594 z m 44.923,-112.822 H 4496.57 v -42.261 h 100.171 z m -66.892,112.822 v 22.642 h -45.931 c -3.11,0 -5.71,1.045 -7.825,3.16 -2.103,2.103 -3.16,4.703 -3.16,7.813 0,3.11 1.057,5.71 3.16,7.825 2.115,2.102 4.715,3.16 7.825,3.16 h 45.931 v 10.985 c 0,3.11 1.331,5.772 3.993,7.987 h -63.907 l -3.658,-66.234 c 0.883,0.672 1.879,1.281 2.998,1.842 1.108,0.547 2.327,0.82 3.658,0.82 z m -92.857,-124.803 5.325,92.197 c -2.227,-3.334 -4.989,-5.001 -8.323,-5.001 h -32.942 z m 186.048,124.803 c 3.098,0 5.711,-1.045 7.814,-3.159 2.114,-2.103 3.159,-4.715 3.159,-7.813 0,-3.11 -1.045,-5.722 -3.159,-7.825 -2.103,-2.115 -4.716,-3.16 -7.814,-3.16 h -8.658 v -34.622 c 0,-3.097 -1.22,-5.872 -3.657,-8.31 -2.228,-2.227 -4.89,-3.334 -7.988,-3.334 h -50.919 v -22.63 h 55.237 c 0.223,0 0.336,-0.062 0.336,-0.161 0,-0.125 0.111,-0.175 0.336,-0.175 l 0.335,0.336 c 3.097,0 5.71,-1.107 7.813,-3.334 2.114,-2.214 3.172,-4.876 3.172,-7.987 V 2178.4 c 0,-3.11 -1.331,-5.773 -3.993,-7.987 -2.003,-2.438 -4.554,-3.67 -7.663,-3.67 h -119.48 c -0.447,0 -0.659,0.125 -0.659,0.336 0,0.224 -0.224,0.336 -0.672,0.336 -0.224,0 -0.386,-0.112 -0.497,-0.336 -0.112,-0.211 -0.286,-0.336 -0.498,-0.336 -3.11,0 -5.723,1.058 -7.825,3.16 -2.114,2.115 -3.16,4.727 -3.16,7.825 v 63.907 c 0,3.098 1.046,5.76 3.16,7.987 2.102,2.214 4.715,3.321 7.825,3.321 0.212,0 0.336,-0.111 0.336,-0.336 0.435,0 0.709,0.113 0.821,0.336 0.112,0.224 0.386,0.336 0.833,0.336 h 42.274 v 22.63 h -44.936 c -3.11,0 -5.71,1.057 -7.812,3.159 -2.116,2.116 -3.172,4.716 -3.172,7.826 0,3.11 1.056,5.71 3.172,7.825 2.102,2.102 4.702,3.16 7.812,3.16 h 44.936 v 24.296 h -56.916 c -3.11,0 -5.661,0.995 -7.651,2.998 l -9.318,-158.43 c -0.224,-3.097 -1.331,-5.648 -3.334,-7.651 -1.99,-1.99 -4.541,-2.998 -7.651,-2.998 l -0.671,0.336 c -3.098,0.224 -5.649,1.393 -7.652,3.496 -1.99,2.115 -2.885,4.715 -2.662,7.825 l 2.326,38.603 c -0.659,-0.672 -1.268,-1.394 -1.828,-2.165 -0.548,-0.784 -1.381,-1.393 -2.488,-1.829 -1.331,-0.672 -2.662,-0.995 -3.993,-0.995 -2.228,0 -4.281,0.61 -6.158,1.829 -1.892,1.219 -3.285,2.936 -4.168,5.15 l -17.641,42.609 v -83.874 c 0,-3.098 -1.045,-5.71 -3.16,-7.825 -2.103,-2.103 -4.715,-3.16 -7.813,-3.16 -3.11,0 -5.722,1.057 -7.825,3.16 -2.114,2.115 -3.159,4.727 -3.159,7.825 v 86.2 l -20.304,-46.59 c -0.895,-2.002 -2.276,-3.607 -4.167,-4.826 -1.879,-1.232 -3.819,-1.829 -5.822,-1.829 -1.556,0 -2.998,0.323 -4.329,0.995 -2.887,1.108 -4.877,3.098 -5.985,5.984 -1.119,2.886 -1.119,5.773 0,8.659 l 39.599,90.853 h -36.277 c -3.11,0 -5.71,1.058 -7.813,3.172 -2.114,2.103 -3.159,4.703 -3.159,7.813 0,3.11 1.045,5.71 3.159,7.825 2.103,2.103 4.703,3.16 7.813,3.16 h 37.285 v 0.995 c -0.448,0.448 -0.722,0.672 -0.834,0.672 -0.112,0 -0.286,0.212 -0.498,0.659 l -44.263,83.202 c -1.555,2.663 -1.891,5.437 -1.008,8.323 0.883,2.886 2.662,5.001 5.325,6.332 2.662,1.543 5.499,1.879 8.497,0.996 2.985,-0.896 5.15,-2.663 6.481,-5.325 l 26.3,-49.265 v 70.563 c 0,3.098 1.045,5.71 3.159,7.825 2.103,2.103 4.715,3.16 7.825,3.16 3.098,0 5.71,-1.057 7.813,-3.16 2.115,-2.115 3.16,-4.727 3.16,-7.825 v -68.896 l 24.968,46.926 c 1.543,2.662 3.769,4.442 6.656,5.325 2.874,0.883 5.66,0.672 8.322,-0.66 2.662,-1.554 4.429,-3.781 5.325,-6.655 0.883,-2.886 0.66,-5.661 -0.671,-8.323 l -44.6,-83.538 v -1.331 h 33.95 c 3.77,0 6.768,-2.115 8.983,-6.32 l 5.66,97.173 c 0.223,4.217 2.662,7.215 7.327,8.994 0.435,0.212 0.933,0.548 1.493,0.996 0.56,0.448 1.281,0.672 2.165,0.672 h 70.563 v 15.973 c 0,3.098 1.044,5.71 3.159,7.813 2.102,2.115 4.703,3.172 7.813,3.172 3.11,0 5.71,-1.057 7.824,-3.172 2.103,-2.103 3.161,-4.715 3.161,-7.813 v -15.973 h 70.226 c 3.111,0 5.711,-1.12 7.825,-3.335 2.103,-2.214 3.161,-4.876 3.161,-7.987 0,-3.109 -1.058,-5.709 -3.161,-7.824 -2.114,-2.103 -4.714,-3.16 -7.825,-3.16 h -74.879 c 2.873,-2.215 4.329,-4.877 4.329,-7.987 v -10.985 h 51.914 c 3.098,0 5.711,-1.058 7.826,-3.16 2.102,-2.115 3.16,-4.715 3.16,-7.825 l -0.336,-0.66 v -32.955 z" /><g
           transform="translate(4940.5352,2326.1685)"
           id="g40"><path
             id="path42"
             style="fill:#e1261c;fill-opacity:1;fill-rule:nonzero;stroke:none"
             d="m 0,0 c -0.225,0.659 -0.448,1.269 -0.659,1.829 -0.225,0.547 -0.225,1.269 0,2.165 0,0.882 0.547,2.102 1.654,3.657 0.224,0.448 0.336,0.945 0.336,1.493 0,0.56 0.224,1.057 0.672,1.505 l 85.864,84.87 c 2.215,2.214 4.827,3.271 7.825,3.159 2.986,-0.112 5.599,-1.281 7.813,-3.495 2.215,-2.215 3.334,-4.828 3.334,-7.826 0,-2.985 -1.119,-5.486 -3.334,-7.489 L 23.96,1.331 118.819,-140.79 c 1.767,-2.438 2.327,-5.15 1.667,-8.148 -0.672,-2.998 -2.226,-5.374 -4.665,-7.153 -1.99,-1.331 -3.993,-2.003 -5.984,-2.003 -3.993,0 -7.104,1.667 -9.33,5.001 L 0.672,-3.334 C 0.224,-2.886 0.05,-2.326 0.174,-1.667 0.273,-0.995 0.224,-0.448 0,0 m -27.618,126.794 c 3.097,0 5.76,-1.045 7.987,-3.16 2.214,-2.103 3.209,-4.715 2.998,-7.813 V -154.76 c 0,-3.11 -1.057,-5.71 -3.173,-7.825 -2.102,-2.102 -4.715,-3.16 -7.812,-3.16 h -68.896 c -3.11,0 -5.71,1.058 -7.825,3.16 -2.102,2.115 -3.16,4.715 -3.16,7.825 0,3.11 1.058,5.71 3.16,7.825 2.115,2.102 4.715,3.16 7.825,3.16 h 57.91 v 259.596 c 0,3.098 1.045,5.71 3.161,7.813 2.102,2.115 4.714,3.16 7.825,3.16 M -69.891,60.573 c 3.11,0 5.71,-1.057 7.825,-3.16 2.102,-2.115 3.16,-4.727 3.16,-7.825 0,-0.448 -0.112,-0.896 -0.336,-1.331 -0.224,-0.448 -0.447,-0.896 -0.659,-1.331 0,-0.896 0.049,-1.667 0.162,-2.327 0.111,-0.671 -0.05,-1.455 -0.498,-2.339 l -93.852,-194.022 c -2.226,-4.217 -5.548,-6.332 -9.989,-6.332 -1.779,0 -3.434,0.336 -4.989,1.008 -2.662,1.331 -4.491,3.433 -5.486,6.319 -1.008,2.887 -0.834,5.773 0.497,8.646 l 87.532,180.724 h -77.554 c -3.11,0 -5.71,1.057 -7.813,3.16 -2.115,2.115 -3.172,4.715 -3.172,7.825 0,3.098 1.057,5.71 3.172,7.825 2.103,2.103 4.703,3.16 7.813,3.16 z" /></g><g
           transform="translate(3549.324,2075.3677)"
           id="g44"><path
             id="path46"
             style="fill:#e1261c;fill-opacity:1;fill-rule:nonzero;stroke:none"
             d="m 0,0 v -9.519 h -34.067 v -90.679 H -45.59 V -9.519 H -79.658 V 0 Z" /></g><g
           transform="translate(3637.282,2075.3677)"
           id="g48"><path
             id="path50"
             style="fill:#e1261c;fill-opacity:1;fill-rule:nonzero;stroke:none"
             d="M 0,0 H 11.021 V -100.198 H 0 v 46.592 h -56.111 v -46.592 H -67.634 V 0 h 11.523 V -43.586 H 0 Z" /></g><g
           transform="translate(3688.6677,1984.187)"
           id="g52"><path
             id="path54"
             style="fill:#e1261c;fill-opacity:1;fill-rule:nonzero;stroke:none"
             d="M 0,0 H 63.626 V -9.018 H -11.522 V 91.181 H 60.62 V 81.662 H 0 V 47.594 H 57.113 V 37.575 L 0,37.575 Z" /></g><g
           transform="translate(3929.9973,2065.3477)"
           id="g56"><path
             id="path58"
             style="fill:#e1261c;fill-opacity:1;fill-rule:nonzero;stroke:none"
             d="m 0,0 h -56.612 v -33.566 h 49.097 l 0.501,-10.02 H -56.612 V -90.178 H -67.634 V 10.02 L 0,10.02 Z" /></g><path
           id="path60"
           style="fill:#e1261c;fill-opacity:1;fill-rule:nonzero;stroke:none"
           d="m 3956.334,2075.368 h 11.021 V 1975.17 h -11.021 z" /><g
           transform="translate(4009.2219,2065.3477)"
           id="g62"><path
             id="path64"
             style="fill:#e1261c;fill-opacity:1;fill-rule:nonzero;stroke:none"
             d="m 0,0 v -35.069 h 32.564 c 16.361,0.328 24.549,6.512 24.549,18.536 C 56.776,-5.847 48.596,-0.336 32.564,0 Z M 76.652,-90.178 H 61.121 L 26.553,-45.089 H 0 V -90.178 H -11.522 V 10.02 H 35.07 C 56.44,9.018 67.798,0 69.137,-17.034 c 0,-17.37 -10.02,-26.724 -30.059,-28.055 z" /></g><g
           transform="translate(4100.1855,2003.7256)"
           id="g66"><path
             id="path68"
             style="fill:#e1261c;fill-opacity:1;fill-rule:nonzero;stroke:none"
             d="m 0,0 11.523,4.008 c 2.333,-17.37 12.689,-25.723 31.061,-25.05 16.361,0.33 24.878,6.678 25.551,19.038 1.667,9.347 -7.687,16.032 -28.055,20.04 -25.387,5.01 -37.411,14.528 -36.072,28.556 1.331,17.034 13.026,26.052 35.07,27.054 21.707,0 34.568,-9.19 38.576,-27.555 L 65.63,42.584 C 61.951,56.612 53.434,63.626 40.08,63.626 24.376,63.29 16.196,57.614 15.531,46.592 15.194,38.24 23.711,32.228 41.082,28.557 68.464,23.547 81.49,13.19 80.159,-2.505 78.483,-19.875 66.131,-29.057 43.085,-30.059 18.365,-30.725 4.008,-20.712 0,0" /></g><g
           transform="translate(4277.3203,2075.3677)"
           id="g70"><path
             id="path72"
             style="fill:#e1261c;fill-opacity:1;fill-rule:nonzero;stroke:none"
             d="m 0,0 v -9.519 h -34.067 v -90.679 H -45.59 V -9.519 H -79.658 V 0 Z" /></g><g
           transform="translate(4416.9482,2065.3477)"
           id="g74"><path
             id="path76"
             style="fill:#e1261c;fill-opacity:1;fill-rule:nonzero;stroke:none"
             d="m 0,0 h -23.546 v -81.662 h 23.045 c 25.379,0.329 37.903,14.028 37.575,41.082 C 36.071,-14.529 23.711,-1.002 0,0 M -0.501,-90.178 H -34.568 V 10.02 H 0.501 C 31.562,9.018 47.595,-7.687 48.597,-40.079 49.262,-74.146 32.894,-90.844 -0.501,-90.178" /></g><g
           transform="translate(4501.4004,1984.187)"
           id="g78"><path
             id="path80"
             style="fill:#e1261c;fill-opacity:1;fill-rule:nonzero;stroke:none"
             d="M 0,0 H 63.626 V -9.018 H -11.523 V 91.181 H 60.62 V 81.662 H 0 V 47.594 H 57.112 V 37.575 L 0,37.575 Z" /></g><g
           transform="translate(4584.8486,2003.7256)"
           id="g82"><path
             id="path84"
             style="fill:#e1261c;fill-opacity:1;fill-rule:nonzero;stroke:none"
             d="m 0,0 11.523,4.008 c 2.332,-17.37 12.689,-25.723 31.061,-25.05 16.361,0.33 24.878,6.678 25.551,19.038 1.668,9.347 -7.687,16.032 -28.056,20.04 -25.386,5.01 -37.409,14.528 -36.071,28.556 1.331,17.034 13.026,26.052 35.069,27.054 21.707,0 34.569,-9.19 38.577,-27.555 L 65.63,42.584 C 61.951,56.612 53.434,63.626 40.079,63.626 24.377,63.29 16.196,57.614 15.531,46.592 15.194,38.24 23.711,32.228 41.081,28.557 68.464,23.547 81.489,13.19 80.159,-2.505 78.483,-19.875 66.131,-29.057 43.085,-30.059 18.364,-30.725 4.008,-20.712 0,0" /></g><g
           transform="translate(4684.8311,2003.7256)"
           id="g86"><path
             id="path88"
             style="fill:#e1261c;fill-opacity:1;fill-rule:nonzero;stroke:none"
             d="m 0,0 11.523,4.008 c 2.332,-17.37 12.689,-25.723 31.061,-25.05 16.361,0.33 24.878,6.678 25.551,19.038 1.668,9.347 -7.687,16.032 -28.056,20.04 -25.386,5.01 -37.409,14.528 -36.071,28.556 1.331,17.034 13.026,26.052 35.069,27.054 21.707,0 34.569,-9.19 38.577,-27.555 L 65.63,42.584 C 61.951,56.612 53.434,63.626 40.079,63.626 24.377,63.29 16.196,57.614 15.531,46.592 15.194,38.24 23.711,32.228 41.081,28.557 68.464,23.547 81.489,13.19 80.159,-2.505 78.483,-19.875 66.131,-29.057 43.085,-30.059 18.364,-30.725 4.008,-20.712 0,0" /></g><g
           transform="translate(4801.3457,1984.187)"
           id="g90"><path
             id="path92"
             style="fill:#e1261c;fill-opacity:1;fill-rule:nonzero;stroke:none"
             d="M 0,0 H 63.626 V -9.018 H -11.523 V 91.181 H 60.62 V 81.662 H 0 V 47.594 H 57.112 V 37.575 L 0,37.575 Z" /></g><g
           transform="translate(4901.3281,2065.3477)"
           id="g94"><path
             id="path96"
             style="fill:#e1261c;fill-opacity:1;fill-rule:nonzero;stroke:none"
             d="m 0,0 v -35.069 h 32.564 c 16.361,0.328 24.548,6.512 24.548,18.536 C 56.776,-5.847 48.596,-0.336 32.564,0 Z M 76.651,-90.178 H 61.121 L 26.552,-45.089 H 0 V -90.178 H -11.523 V 10.02 H 35.069 C 56.439,9.018 67.798,0 69.137,-17.034 c 0,-17.37 -10.021,-26.724 -30.06,-28.055 z" /></g><g
           transform="translate(5069.4443,2075.3677)"
           id="g98"><path
             id="path100"
             style="fill:#e1261c;fill-opacity:1;fill-rule:nonzero;stroke:none"
             d="m 0,0 v -9.519 h -34.068 v -90.679 H -45.591 V -9.519 H -79.658 V 0 Z" /></g></g></g></g></svg>